Coordinates
version=1
nRows=26
nColumns=24
inDegrees=yes

Units are S.I. units (second, meters, Newtons, ...)
Angles are in degrees.

endheader
time	pelvis_tilt	pelvis_list	pelvis_rotation	pelvis_tx	pelvis_ty	pelvis_tz	hip_flexion_r	hip_adduction_r	hip_rotation_r	knee_angle_r	ankle_angle_r	subtalar_angle_r	mtp_angle_r	hip_flexion_l	hip_adduction_l	hip_rotation_l	knee_angle_l	ankle_angle_l	subtalar_angle_l	mtp_angle_l	lumbar_extension	lumbar_bending	lumbar_rotation
      3.86000000	     13.84822944	      1.68262708	     -2.44675112	      0.60834771	      0.94374475	     -0.00739123	    -17.28736348	     -6.87115456	     -1.98690699	    -37.77901698	     21.51515651	     17.93699664	     43.63995518	      2.00219162	      1.63958650	     -8.26872062	    -15.24413067	      6.01521542	     15.05161420	     23.26509044	    -26.44681749	     -1.62788304	      4.25044164
      3.86500000	     14.04562750	      1.84160290	     -2.47567877	      0.61322375	      0.94470993	     -0.00832654	    -16.94779892	     -7.24096218	     -2.09738820	    -39.15457824	     20.06771279	     17.98809150	     47.01473896	      1.46375920	      1.88466512	     -8.19940418	    -15.27318490	      6.39888253	     15.20122270	     20.77907955	    -26.63690775	     -1.88188834	      4.15820759
      3.87000000	     14.19853120	      2.00446337	     -2.51065478	      0.61803641	      0.94564182	     -0.00919144	    -16.53480024	     -7.60223122	     -2.15041072	    -40.55911770	     18.83966245	     18.16912740	     47.02223307	      0.94241923	      2.12193850	     -8.22328759	    -15.21027690	      6.54876145	     15.38613093	     20.70112816	    -26.78263274	     -2.14453928	      4.04480053
      3.87500000	     14.41124410	      2.15905492	     -2.56813432	      0.62285458	      0.94666902	     -0.00997632	    -16.18653241	     -7.96192062	     -2.20883312	    -41.88887044	     17.51740399	     18.12228979	     49.33616202	      0.30124542	      2.34728258	     -8.34932365	    -15.06108214	      6.91438968	     15.76092370	     18.02336349	    -26.99041261	     -2.41085532	      3.98742811
      3.88000000	     14.59548079	      2.31245419	     -2.62941758	      0.62764624	      0.94767217	     -0.01069472	    -15.79921070	     -8.30642942	     -2.22376058	    -43.20834405	     16.41073631	     18.12818329	     49.27407915	     -0.34525772	      2.56593749	     -8.54704153	    -14.81392409	      7.06713915	     16.12171859	     17.90604456	    -27.16756270	     -2.67912799	      3.90038374
      3.88500000	     14.74162611	      2.45005109	     -2.66908813	      0.63237148	      0.94863727	     -0.01139381	    -15.36330366	     -8.61687960	     -2.25019287	    -44.49244366	     15.35656513	     17.97377285	     49.22412822	     -0.96406236	      2.76366235	     -8.76513602	    -14.52598499	      7.14792813	     16.48117870	     17.83461118	    -27.30861404	     -2.92305845	      3.79035226
      3.89000000	     14.95810144	      2.56484250	     -2.77031130	      0.63713115	      0.94971452	     -0.01193577	    -15.00828064	     -8.90488012	     -2.20397273	    -45.69489760	     14.44079363	     17.67044224	     49.15922008	     -1.73611693	      2.94024164	     -9.10679685	    -14.09403637	      7.27490350	     16.98703808	     17.65469641	    -27.51934102	     -3.17286201	      3.77415419
      3.89500000	     15.13958237	      2.66420088	     -2.84524874	      0.64183824	      0.95073449	     -0.01247968	    -14.61621081	     -9.16205883	     -2.18177889	    -46.85217413	     13.63914841	     17.24971776	     49.03295578	     -2.47372841	      3.09937113	     -9.46244101	    -13.64536122	      7.36266133	     17.49716280	     17.45036188	    -27.69661443	     -3.39425774	      3.70692585
      3.90000000	     15.30850977	      2.72186942	     -2.92083929	      0.64650794	      0.95172815	     -0.01291450	    -14.20698357	     -9.36219017	     -2.15026400	    -47.97753633	     13.07254711	     16.87968957	     46.75689984	     -3.18275680	      3.19271832	     -9.93509712	    -13.27150649	      7.83312164	     18.37743007	     12.92558149	    -27.86364586	     -3.58055064	      3.65223527
      3.90500000	     15.49646287	      2.78379109	     -3.00072168	      0.65115507	      0.95275499	     -0.01337444	    -13.82649133	     -9.56879265	     -2.14379442	    -49.01035379	     12.52883503	     16.21959882	     46.67551036	     -3.97440283	      3.32326386	    -10.33089617	    -12.71815541	      7.86332254	     18.88703609	     12.84202011	    -28.05138535	     -3.76558058	      3.61114532
      3.91000000	     15.61662206	      2.86281781	     -3.06373986	      0.65574026	      0.95365951	     -0.01385627	    -13.35682065	     -9.79289164	     -2.17771121	    -50.02454605	     12.13373032	     15.51666682	     46.51855867	     -4.68524096	      3.47481032	    -10.71552646	    -12.16137909	      7.83127095	     19.37309561	     12.78340347	    -28.17121925	     -3.95633850	      3.49572593
      3.91500000	     15.79725000	      2.84334784	     -3.17748557	      0.66038625	      0.95464903	     -0.01413392	    -12.97278343	     -9.90226475	     -2.13734555	    -50.94313267	     12.05355791	     14.90389212	     43.67902076	     -5.49488141	      3.51289709	    -11.28763330	    -11.58752721	      8.06554593	     20.18052693	     11.08349191	    -28.34683085	     -4.07492869	      3.52982169
      3.92000000	     15.95334469	      2.82694543	     -3.23773465	      0.66493768	      0.95562905	     -0.01452907	    -12.56846108	    -10.00571939	     -2.18463970	    -51.77331491	     11.83066300	     13.97768202	     43.46314851	     -6.28766098	      3.57596568	    -11.69482002	    -10.94715700	      8.01820277	     20.68037625	     10.95449661	    -28.51062235	     -4.16531110	      3.48730712
      3.92500000	     16.10356311	      2.78743491	     -3.30332794	      0.66949772	      0.95657134	     -0.01486683	    -12.16349149	    -10.08516328	     -2.25020627	    -52.53422967	     11.75225718	     13.08473476	     42.93064039	     -7.06614253	      3.61022345	    -12.19145377	    -10.33777137	      8.05798458	     21.32004096	     10.70543354	    -28.66479170	     -4.23415661	      3.44835936
      3.93000000	     16.17639572	      2.75951271	     -3.39453040	      0.67396150	      0.95736670	     -0.01519447	    -11.63599675	    -10.18670478	     -2.29460610	    -53.31726179	     12.03486699	     12.50226797	     39.61597319	     -7.75474033	      3.66726058	    -12.67269267	     -9.72561934	      8.13697720	     21.93040324	      8.89670586	    -28.74236962	     -4.31648047	      3.45448551
      3.93500000	     16.26708153	      2.67544380	     -3.42731200	      0.67838440	      0.95823332	     -0.01558024	    -11.16493309	    -10.20192287	     -2.40490877	    -53.94373889	     12.08940320	     11.55825571	     39.45372375	     -8.46302291	      3.66934492	    -13.05392568	     -9.09853956	      8.07056017	     22.35564943	      8.78031211	    -28.85079335	     -4.31188719	      3.40988580
      3.94000000	     16.36070852	      2.57026124	     -3.48216269	      0.68277190	      0.95907759	     -0.01588567	    -10.68810412	    -10.19519410	     -2.51068155	    -54.51134114	     12.22365930	     10.70603725	     39.13970401	     -9.16117639	      3.64764851	    -13.50836614	     -8.50354444	      8.04158841	     22.90461642	      8.61174941	    -28.96338182	     -4.29770950	      3.42801784
      3.94500000	     16.41089745	      2.48186453	     -3.52970577	      0.68710351	      0.95981559	     -0.01620302	    -10.15108868	    -10.20937836	     -2.63430715	    -55.07240936	     12.70572483	     10.23674138	     35.90428282	     -9.78377483	      3.63949813	    -13.95616048	     -7.97000230	      8.19586409	     23.50826019	      6.42682804	    -29.03685668	     -4.29072296	      3.39843217
      3.95000000	     16.42587697	      2.39425234	     -3.52820282	      0.69138655	      0.96052257	     -0.01662574	     -9.58877637	    -10.21647420	     -2.83680045	    -55.52583481	     12.96114630	      9.58734083	     35.85666132	    -10.35790564	      3.63843338	    -14.26760068	     -7.42481414	      8.09573211	     23.84276802	      6.36115900	    -29.07934370	     -4.25185684	      3.34223559
      3.95500000	     16.50026930	      2.18782046	     -3.56946073	      0.69562814	      0.96134603	     -0.01683906	     -9.10122130	    -10.05716984	     -2.92514412	    -55.85784580	     13.20518803	      8.98321480	     35.61481599	    -10.98824103	      3.50059113	    -14.73794594	     -6.93032748	      8.13767766	     24.42434752	      6.13662809	    -29.19245400	     -4.12263009	      3.38309126
      3.96000000	     16.48627026	      2.08888411	     -3.58023136	      0.69981008	      0.96198735	     -0.01723240	     -8.49176823	    -10.04178326	     -3.12014144	    -56.19452254	     13.52980555	      8.57574024	     35.49420142	    -11.50210622	      3.49001136	    -15.03695037	     -6.43214613	      8.04448016	     24.72506445	      6.03094893	    -29.21584039	     -4.06771900	      3.34789927
      3.96500000	     16.52025088	      1.89879141	     -3.61644586	      0.70396087	      0.96270397	     -0.01743012	     -7.94393955	     -9.89104647	     -3.22940117	    -56.45738108	     14.07808884	      8.49032395	     32.30227100	    -12.04754020	      3.36334765	    -15.46350329	     -6.02279111	      8.31618155	     25.32542892	      3.13699058	    -29.29616382	     -3.94653539	      3.38090573
      3.97000000	     16.49066742	      1.75081252	     -3.63063159	      0.70805953	      0.96330742	     -0.01773343	     -7.32091035	     -9.78933298	     -3.39204400	    -56.64862687	     14.44628283	      8.32050319	     32.33787180	    -12.50640532	      3.28896255	    -15.75956915	     -5.60619588	      8.25910964	     25.63490069	      3.05386119	    -29.31241674	     -3.84215514	      3.37237201
      3.97500000	     16.49381469	      1.56134069	     -3.66446547	      0.71213964	      0.96394575	     -0.01794526	     -6.73814508	     -9.62262209	     -3.51004516	    -56.75603555	     14.78095459	      8.26251716	     32.30908359	    -12.99476440	      3.16832546	    -16.11755498	     -5.21684824	      8.32141286	     26.06916376	      2.86035166	    -29.36886032	     -3.70837197	      3.42542296
      3.98000000	     16.44723814	      1.39051397	     -3.66272906	      0.71618792	      0.96450941	     -0.01821719	     -6.11356433	     -9.46250772	     -3.66715578	    -56.79781417	     15.18864772	      8.31321617	     32.29248491	    -13.40826194	      3.06142381	    -16.35011902	     -4.85219124	      8.27961946	     26.27775214	      2.75044346	    -29.37500608	     -3.57106436	      3.41013950
      3.98500000	     16.45520433	      1.18607692	     -3.73077262	      0.72022879	      0.96509901	     -0.01833905	     -5.53531219	     -9.25204045	     -3.71865962	    -56.79524002	     15.72989515	      8.57658369	     30.19393505	    -13.87784002	      2.92560812	    -16.73069033	     -4.53757626	      8.67862060	     26.75755509	     -1.12133340	    -29.43967365	     -3.43195982	      3.48138879
